<svg viewBox="148.54700854700855 206.8 350.6837606837607 54.52" xmlns="http://www.w3.org/2000/svg" style="max-height: 500px" width="350.6837606837607" height="54.52"><g text-anchor="none" style="mix-blend-mode:normal" font-weight="none" font-size="none" font-family="none" data-paper-data="{&quot;isGlobalGroup&quot;:true,&quot;bounds&quot;:{&quot;x&quot;:65,&quot;y&quot;:215.37815439942068,&quot;width&quot;:420.00000000000006,&quot;height&quot;:39.24369120115861}}" stroke-miterlimit="10" fill-rule="none" fill="#101820"><g data-paper-data="{&quot;isPrimaryText&quot;:true}"><path data-paper-data="{&quot;glyphName&quot;:&quot;C&quot;,&quot;glyphIndex&quot;:0,&quot;firstGlyphOfWord&quot;:true,&quot;word&quot;:1}" d="M173.23 241.705c2.341 0 4.256-.927 5.742-2.78l3.055 3.146c-2.424 2.729-5.28 4.093-8.568 4.093-3.289 0-5.997-1.038-8.125-3.115-2.128-2.078-3.192-4.7-3.192-7.866 0-3.166 1.084-5.808 3.253-7.926 2.169-2.118 4.82-3.177 7.957-3.177 3.502 0 6.435 1.334 8.797 4.002l-2.963 3.36c-1.507-1.874-3.38-2.81-5.62-2.81-1.792 0-3.325.585-4.597 1.756-1.273 1.17-1.91 2.749-1.91 4.734 0 1.986.601 3.579 1.803 4.78 1.201 1.202 2.657 1.803 4.368 1.803z" fill-rule="nonzero"/><path data-paper-data="{&quot;glyphName&quot;:&quot;A&quot;,&quot;glyphIndex&quot;:1,&quot;word&quot;:1}" d="M185.509 245.92v-12.188c0-3.156.804-5.554 2.413-7.193 1.608-1.64 3.848-2.459 6.72-2.459 2.87 0 5.106.81 6.704 2.429 1.599 1.618 2.398 3.965 2.398 7.04v12.37h-4.796v-5.009h-8.674v5.01zm4.765-12.34v3.115h8.674v-2.963c0-1.71-.387-3.039-1.16-3.986-.774-.947-1.838-1.42-3.192-1.42s-2.413.453-3.177 1.36c-.764.905-1.145 2.204-1.145 3.894z" fill-rule="nonzero"/><path data-paper-data="{&quot;glyphName&quot;:&quot;T&quot;,&quot;glyphIndex&quot;:2,&quot;fontStyleEffect&quot;:true,&quot;word&quot;:1}" d="M214.373 246.429h4.796a.511.511 0 0 0 .51-.51v-16.48a14.85 14.85 0 0 1 4.21 2.147.507.507 0 0 0 .709-.13l2.504-3.635a.5.5 0 0 0 .087-.348.583.583 0 0 0-.034-.133.53.53 0 0 0-.13-.186c-1.13-1.022-2.653-1.876-4.57-2.56-1.908-.682-3.808-1.023-5.699-1.023s-3.796.34-5.714 1.022c-1.927.685-3.456 1.538-4.585 2.561a.54.54 0 0 0-.13.186.488.488 0 0 0-.037.224.514.514 0 0 0 .09.257l2.504 3.634.005.008a.53.53 0 0 0 .144.136.53.53 0 0 0 .286.076.5.5 0 0 0 .28-.094l.63-.45c.43-.272 1.053-.6 1.872-.985.596-.28 1.184-.516 1.763-.707v16.48a.49.49 0 0 0 .04.196.548.548 0 0 0 .11.165.49.49 0 0 0 .212.127.503.503 0 0 0 .148.022zm4.287-1.018h-3.777v-16.657a.489.489 0 0 0-.04-.195.553.553 0 0 0-.11-.165.487.487 0 0 0-.212-.128.506.506 0 0 0-.282-.003c-.843.231-1.7.552-2.572.961-.864.407-1.53.758-1.996 1.055a.461.461 0 0 0-.022.015l-.22.157-1.952-2.83c.994-.807 2.295-1.496 3.905-2.068 1.809-.643 3.6-.964 5.374-.964 1.774 0 3.56.321 5.357.963 1.602.572 2.898 1.261 3.89 2.068l-1.952 2.834a15.96 15.96 0 0 0-4.746-2.19.507.507 0 0 0-.627.353.507.507 0 0 0-.018.137z" fill-rule="evenodd"/><path data-paper-data="{&quot;glyphName&quot;:&quot;L&quot;,&quot;glyphIndex&quot;:3,&quot;word&quot;:1}" d="M229.83 245.92v-21.351h4.764v17.105h9.102v4.246z" fill-rule="nonzero"/><path data-paper-data="{&quot;glyphName&quot;:&quot;E&quot;,&quot;glyphIndex&quot;:4,&quot;word&quot;:1}" d="M254.967 228.479c-2.016 0-3.024.59-3.024 1.771 0 1.609 1.355 2.413 4.063 2.413h3.421v4.093h-3.36c-2.016 0-3.37.204-4.062.611-.754.407-1.13 1.08-1.13 2.016 0 1.63 1.343 2.444 4.031 2.444.917 0 1.889-.163 2.917-.489 1.029-.326 1.9-.723 2.612-1.191l1.252 4.246c-2.117 1.16-4.515 1.74-7.193 1.74s-4.765-.575-6.262-1.725c-1.496-1.15-2.245-2.8-2.245-4.948 0-2.149.988-3.824 2.963-5.025-1.344-1.181-2.016-2.657-2.016-4.43 0-1.77.698-3.201 2.092-4.29 1.395-1.09 3.264-1.635 5.605-1.635.937 0 1.98.128 3.131.382 1.15.255 2.113.575 2.887.962l-.917 4.307c-1.853-.835-3.441-1.252-4.765-1.252z" fill-rule="nonzero"/><path data-paper-data="{&quot;glyphName&quot;:&quot;N&quot;,&quot;glyphIndex&quot;:5,&quot;word&quot;:1}" d="M274.791 228.479c-1.405 0-2.53.473-3.375 1.42-.845.947-1.268 2.327-1.268 4.139v11.882h-4.765v-21.351h4.765v1.71c.143-.162.351-.366.626-.61.275-.245.856-.57 1.741-.978a6.412 6.412 0 0 1 2.704-.61c2.423 0 4.434.788 6.032 2.366 1.599 1.579 2.398 3.813 2.398 6.705v12.768h-4.765v-11.882c0-3.706-1.364-5.56-4.093-5.56z" fill-rule="nonzero"/><path data-paper-data="{&quot;glyphName&quot;:&quot;D&quot;,&quot;glyphIndex&quot;:6,&quot;word&quot;:1}" d="M296.356 224.569c3.807 0 6.73.932 8.766 2.795 2.036 1.863 3.054 4.454 3.054 7.773 0 3.32-.992 5.947-2.978 7.881-1.985 1.935-5.014 2.902-9.087 2.902h-7.3v-21.351zm.244 17.136c2.179 0 3.854-.55 5.025-1.65 1.17-1.1 1.756-2.698 1.756-4.795 0-2.098-.586-3.712-1.756-4.842-1.171-1.13-2.968-1.695-5.392-1.695h-2.657v12.982z" fill-rule="nonzero"/><path data-paper-data="{&quot;glyphName&quot;:&quot;A&quot;,&quot;glyphIndex&quot;:7,&quot;word&quot;:1}" d="M311.567 245.92v-12.188c0-3.156.804-5.554 2.413-7.193 1.609-1.64 3.849-2.459 6.72-2.459 2.871 0 5.106.81 6.704 2.429 1.599 1.618 2.398 3.965 2.398 7.04v12.37h-4.795v-5.009h-8.675v5.01zm4.765-12.34v3.115h8.675v-2.963c0-1.71-.387-3.039-1.161-3.986-.774-.947-1.838-1.42-3.192-1.42s-2.413.453-3.177 1.36c-.763.905-1.145 2.204-1.145 3.894z" fill-rule="nonzero"/><path data-paper-data="{&quot;glyphName&quot;:&quot;R&quot;,&quot;glyphIndex&quot;:8,&quot;word&quot;:1}" d="M352.283 231.655c0 3.421-1.354 5.63-4.062 6.629l5.406 7.636h-5.865l-4.734-6.812h-3.299v6.812h-4.765v-21.351h8.095c3.319 0 5.686.56 7.101 1.68 1.415 1.12 2.123 2.922 2.123 5.406zm-9.072 3.33c1.63 0 2.74-.265 3.33-.794.59-.53.885-1.37.885-2.52s-.305-1.94-.916-2.368c-.61-.427-1.68-.641-3.207-.641h-3.574v6.323z" fill-rule="nonzero"/><path data-paper-data="{&quot;glyphName&quot;:&quot;.&quot;,&quot;glyphIndex&quot;:9,&quot;word&quot;:1}" d="m357.033 245.385-.39-.39c-.26-.259-.39-.765-.39-1.519 0-.753.26-1.39.78-1.909.519-.52 1.155-.779 1.909-.779.753 0 1.39.26 1.909.78.52.518.779 1.155.779 1.908 0 .754-.26 1.39-.78 1.91-.518.518-1.155.778-1.908.778-.754 0-1.39-.26-1.91-.779z" fill-rule="nonzero"/><path data-paper-data="{&quot;glyphName&quot;:&quot;O&quot;,&quot;glyphIndex&quot;:10,&quot;word&quot;:1}" d="M381.85 235.122v-1.428c0-.952-.61-2.1-1.832-3.444-1.222-1.344-2.724-2.016-4.506-2.016-1.781 0-3.283.672-4.505 2.016-1.222 1.344-1.833 2.968-1.833 4.872s.611 3.523 1.833 4.857 2.724 2 4.505 2c1.782 0 3.284-.666 4.506-2 1.221-1.334 1.832-2.953 1.832-4.857zm1.62 7.85-1.62 1.58c-1.079 1.055-3.197 1.582-6.353 1.582-3.156 0-5.814-1.054-7.972-3.162-2.159-2.107-3.238-4.73-3.238-7.865 0-3.136 1.08-5.758 3.238-7.865 2.158-2.108 4.816-3.162 7.972-3.162 3.156 0 5.814 1.054 7.972 3.162 2.159 2.107 3.238 4.729 3.238 7.865s-1.08 5.758-3.238 7.865z" fill-rule="nonzero"/><path data-paper-data="{&quot;glyphName&quot;:&quot;N&quot;,&quot;glyphIndex&quot;:11,&quot;word&quot;:1}" d="M400.3 228.479c-1.406 0-2.53.473-3.376 1.42-.845.947-1.267 2.327-1.267 4.139v11.882h-4.765v-21.351h4.765v1.71c.142-.162.35-.366.626-.61.275-.245.855-.57 1.74-.978a6.412 6.412 0 0 1 2.704-.61c2.423 0 4.434.788 6.033 2.366 1.598 1.579 2.397 3.813 2.397 6.705v12.768h-4.765v-11.882c0-3.706-1.364-5.56-4.093-5.56z" fill-rule="nonzero"/><path data-paper-data="{&quot;glyphName&quot;:&quot;L&quot;,&quot;glyphIndex&quot;:12,&quot;word&quot;:1}" d="M414.32 245.92v-21.351h4.764v17.105h9.103v4.246z" fill-rule="nonzero"/><path data-paper-data="{&quot;glyphName&quot;:&quot;I&quot;,&quot;glyphIndex&quot;:13,&quot;word&quot;:1}" d="M442.787 241.827v4.093H430.54v-4.093h3.665v-13.165h-3.665v-4.093h12.248v4.093h-3.818v13.165z" fill-rule="nonzero"/><path data-paper-data="{&quot;glyphName&quot;:&quot;N&quot;,&quot;glyphIndex&quot;:14,&quot;word&quot;:1}" d="M456.471 228.479c-1.405 0-2.53.473-3.375 1.42-.845.947-1.268 2.327-1.268 4.139v11.882h-4.765v-21.351h4.765v1.71c.143-.162.352-.366.627-.61.274-.245.855-.57 1.74-.978a6.412 6.412 0 0 1 2.704-.61c2.423 0 4.434.788 6.032 2.366 1.599 1.579 2.398 3.813 2.398 6.705v12.768h-4.765v-11.882c0-3.706-1.364-5.56-4.093-5.56z" fill-rule="nonzero"/><path data-paper-data="{&quot;glyphName&quot;:&quot;E&quot;,&quot;glyphIndex&quot;:15,&quot;lastGlyphOfWord&quot;:true,&quot;word&quot;:1}" d="M478.28 228.479c-2.016 0-3.024.59-3.024 1.771 0 1.609 1.354 2.413 4.063 2.413h3.42v4.093h-3.36c-2.015 0-3.37.204-4.062.611-.753.407-1.13 1.08-1.13 2.016 0 1.63 1.344 2.444 4.032 2.444.916 0 1.889-.163 2.917-.489 1.028-.326 1.899-.723 2.612-1.191l1.252 4.246c-2.118 1.16-4.516 1.74-7.193 1.74-2.678 0-4.765-.575-6.262-1.725-1.497-1.15-2.245-2.8-2.245-4.948 0-2.149.988-3.824 2.963-5.025-1.344-1.181-2.016-2.657-2.016-4.43 0-1.77.697-3.201 2.092-4.29 1.395-1.09 3.263-1.635 5.605-1.635.937 0 1.98.128 3.131.382 1.15.255 2.113.575 2.886.962l-.916 4.307c-1.853-.835-3.441-1.252-4.765-1.252z" fill-rule="nonzero"/></g><g data-paper-data="{&quot;fillRule&quot;:&quot;evenodd&quot;,&quot;fillRuleOriginal&quot;:&quot;evenodd&quot;,&quot;isIcon&quot;:true,&quot;iconStyle&quot;:&quot;standalone&quot;,&quot;selectedEffects&quot;:{&quot;container&quot;:&quot;&quot;,&quot;transformation&quot;:&quot;rotate0;translate50&quot;,&quot;pattern&quot;:&quot;&quot;},&quot;bounds&quot;:{&quot;x&quot;:65,&quot;y&quot;:215.37815439942068,&quot;width&quot;:44.7991732320321,&quot;height&quot;:39.24369120115861},&quot;iconType&quot;:&quot;icon&quot;,&quot;isDetailed&quot;:true,&quot;source&quot;:&quot;ai&quot;,&quot;rawIconId&quot;:&quot;pizu1oZ5Rpd4ty19OoSVUtMbKIXxhb7IrXFVZQiWGA&quot;,&quot;suitableAsStandaloneIcon&quot;:true}" fill-rule="evenodd"><path data-paper-data="{&quot;isPathIcon&quot;:true}" d="M102.414 216.41c.724-.472 1.347-.79 1.873-.959.329-.105.396-.1.589.04.156.114.178.275.219 1.543l.045 1.417.673.538c1.942 1.554 3.01 3.003 3.698 5.016.241.704.284.96.288 1.725.008 1.371-.373 2.264-1.38 3.24-.664.644-1.31 1.01-2.317 1.308-1.33.396-1.52.647-2.207 2.916-.931 3.08-1.877 4.862-4.117 7.764a57.897 57.897 0 0 0-1.214 1.615c-1.103 1.608-1.699 3.931-1.618 6.313.047 1.4.206 1.832 1 2.715.667.744.812 1.035.815 1.643.004.552-.153.875-.552 1.136-.21.138-.471.159-1.996.159-1.635 0-1.781-.014-2.161-.201-.58-.286-.895-.653-1.502-1.749-.835-1.507-2.084-4.804-2.084-5.5 0-.231.215-.358.335-.196.043.059.152.35.24.645.545 1.822 2.143 5.257 2.732 5.875.487.51 1.002.632 2.67.632 1.477 0 1.589-.033 1.706-.5.107-.428-.054-.802-.695-1.61-.352-.444-.716-.982-.808-1.197-.275-.637-.375-1.56-.314-2.885.114-2.471.791-4.454 2.108-6.175 2.22-2.9 2.608-3.46 3.31-4.776.625-1.17 1.01-2.135 1.502-3.757.514-1.694.74-2.217 1.165-2.687.336-.372.578-.487 1.72-.817 1.68-.486 2.966-1.971 3.065-3.542.075-1.198-.498-2.922-1.387-4.167-.586-.821-1.532-1.797-2.462-2.538-.433-.346-.81-.7-.838-.787-.028-.088-.044-.672-.036-1.3.007-.626-.011-1.164-.042-1.195-.106-.106-1.548.665-2.304 1.233-1.403 1.054-3.22 2.957-4.202 4.4-1.412 2.074-2.509 3.161-3.488 3.456-.24.072-.809.125-1.344.125h-.928l-.001.516c-.002.83-.091 1.178-.378 1.464-.2.2-.346.264-.61.264-.79 0-1.09-.389-1.148-1.488l-.038-.728-1.672-.059a90.418 90.418 0 0 0-6.362 0l-1.548.06v.667c0 1.043-.348 1.548-1.068 1.548-.708 0-.937-.32-.996-1.391l-.045-.808-.359.027c-.985.076-2.133.61-3.994 1.857-4.402 2.95-6.98 6.678-7.98 11.54-.53 2.577-.458 4.964.22 7.309.806 2.793 2.93 5.925 4.856 7.16 1.008.647 1.246.7 3.622.799 2.12.088 9.883.041 10.152-.062.396-.152.497-1.02.172-1.477-.102-.143-.386-.408-.633-.589-.47-.346-.536-.464-.307-.552.418-.16 1.59.833 1.705 1.445.133.71-.108 1.28-.688 1.621-.296.175-.457.18-6.183.17-3.971-.006-6.053-.042-6.417-.111-.296-.056-.87-.265-1.276-.465-1.949-.959-4.334-4.097-5.39-7.093-2.071-5.867-.039-13.33 4.884-17.936 1.342-1.255 3.366-2.682 5.099-3.593a7.226 7.226 0 0 1 2.135-.678l.427-.056v-.583c0-.895.34-1.38.967-1.38.725 0 1.097.461 1.097 1.363v.566h4.801l4.802.001v-.342c0-.942.421-1.589 1.035-1.589.728 0 1.04.372 1.1 1.313l.042.646.594.057c.694.067 1.378-.047 1.917-.32.53-.267 1.54-1.34 2.302-2.443 1.744-2.527 3.478-4.311 5.407-5.567zm-11.857 8.8c-.001-.957.035-1.412.129-1.637.107-.257.177-.311.398-.311.49 0 .548.208.548 1.932 0 1.74-.038 1.87-.54 1.822-.47-.045-.534-.263-.535-1.805zm-11.669-.007c0-1.375.022-1.637.149-1.777a.49.49 0 0 1 .698-.023c.117.117.14.4.14 1.685 0 1.716-.06 1.943-.525 1.943-.438 0-.462-.092-.462-1.828zm7.01 10.253c.908-.87 2.136-2.03 2.728-2.58 1.212-1.123 1.39-1.193 1.847-.736.12.12.215.209.248.317.111.36-.474.935-3.149 3.614-1.74 1.742-3.233 3.19-3.32 3.217a.63.63 0 0 1-.325-.002c-.09-.03-.96-.878-1.93-1.888-1.331-1.386-1.762-1.89-1.762-2.059 0-.31.497-.859.78-.859.228 0 .586.305 2.192 1.868.425.414.833.738.906.721.073-.017.876-.743 1.784-1.613z"/></g><path data-paper-data="{&quot;isShapeTextSeparator&quot;:true}" d="M130.736 254.622v-39.244h1.174v39.244z" fill-rule="nonzero"/></g></svg>