<svg viewBox="140.08547008547006 104.34 273.5897435897436 156.98000000000002" xmlns="http://www.w3.org/2000/svg" style="max-height: 500px" width="273.5897435897436" height="156.98000000000002"><g text-anchor="none" style="mix-blend-mode:normal" font-weight="none" font-size="none" font-family="none" data-paper-data="{&quot;isGlobalGroup&quot;:true,&quot;bounds&quot;:{&quot;x&quot;:65,&quot;y&quot;:123.13587422994163,&quot;width&quot;:420,&quot;height&quot;:223.72825154011673}}" stroke-miterlimit="10" fill-rule="none" fill="#101820"><g data-paper-data="{&quot;isSecondaryText&quot;:true}" fill-rule="nonzero"><path data-paper-data="{&quot;glyphName&quot;:&quot;P&quot;,&quot;glyphIndex&quot;:0,&quot;firstGlyphOfWord&quot;:true,&quot;word&quot;:1}" d="M70.108 346.864c.21 0 .382-.172.382-.382 0-.343.038-.859.057-1.488.038-.974.096-2.195.096-3.302 0-.42-.02-1.165-.039-2.062 0-.057.039-.095.096-.114 1.069-.096 1.985-.497 2.653-1.165.725-.744 1.145-1.813 1.145-3.168 0-1.279-.42-2.176-1.145-2.768-.82-.687-1.985-.935-3.245-.935a.375.375 0 0 0-.382.344c-.019.229-.019.591-.019 1.069 0 1.336.058 3.454.096 5.325.019.305.019.61.038.897v.114c.019 1.031.038 1.91.038 2.463 0 1.145-.038 2.328-.095 3.283-.02.648-.039 1.202-.039 1.507 0 .21.172.382.363.382zm.592-8.112c-.038.02-.057 0-.077-.019-.038-.019-.038-.057-.038-.076l-.019-.458c-.057-2.176-.133-4.677-.114-5.84.019-.039.019-.058.038-.077.038-.038.057-.038.095-.038.916.057 1.718.267 2.29.744.535.458.879 1.164.879 2.195 0 1.145-.344 2.042-.955 2.634-.515.534-1.24.859-2.1.935z"/><path data-paper-data="{&quot;glyphName&quot;:&quot;L&quot;,&quot;glyphIndex&quot;:1,&quot;word&quot;:1}" d="M88.378 346.864h1.221c.84 0 1.775-.019 2.08-.133a.428.428 0 0 0 .23-.363c0-.038-.02-.096-.038-.153a.377.377 0 0 0-.344-.229c-.057 0-.095.02-.152.038-.134.058-.802.096-1.547.096-.324 0-.668-.02-.973-.02-.057 0-.114-.038-.114-.114 0-.286-.02-.63-.039-1.011-.038-.955-.095-2.138-.095-3.283 0-.726.038-2.024.076-3.474.058-1.813.115-3.837.115-5.173 0-.553-.02-.973-.038-1.221a.372.372 0 0 0-.363-.344h-.038a.372.372 0 0 0-.344.363v.038c.02.21.02.573.02 1.05 0 1.298-.058 3.397-.096 5.268a116.375 116.375 0 0 0-.096 3.493c0 1.107.058 2.328.115 3.302.02.63.038 1.145.038 1.488 0 .21.172.382.382.382z"/><path data-paper-data="{&quot;glyphName&quot;:&quot;A&quot;,&quot;glyphIndex&quot;:2,&quot;word&quot;:1}" d="M111.125 346.845c.038 0 .057-.02.096-.02a.368.368 0 0 0 .286-.362c0-.038 0-.057-.02-.095-.4-1.489-.63-2.844-.896-4.486-.21-1.221-.44-2.614-.783-4.332-.19-.955-.382-1.947-.592-2.959l-.496-2.71a.39.39 0 0 0-.382-.305.355.355 0 0 0-.362.305c-.325 1.813-.764 3.951-1.184 6.146l-.916 4.562c-.095.515-.172 1.05-.248 1.546-.133.801-.248 1.546-.42 2.233a.37.37 0 0 0 .267.458c.191.057.401-.076.459-.267.114-.44.21-.897.286-1.394a.23.23 0 0 1 .095-.095c.191-.02.458-.02.764-.038.4 0 .878.019 1.355.057.515.038.935.076 1.317.096.19 0 .382 0 .572-.02.058 0 .096.039.115.096.095.42.19.859.324 1.298.058.152.191.286.363.286zm-1.355-2.424c-.363 0-.763-.038-1.279-.095a12.152 12.152 0 0 0-1.412-.039c-.21 0-.401 0-.573.02a.146.146 0 0 1-.095-.039c-.02-.019-.038-.057-.02-.095l.23-1.45c.267-1.375.591-2.978.897-4.562.248-1.203.496-2.405.706-3.55.02-.039.057-.096.114-.096.058 0 .115.057.115.095.02.039.02.077.02.115l.59 2.958c.344 1.7.573 3.092.783 4.314.134.82.248 1.565.401 2.29 0 .039 0 .077-.019.096-.038.019-.057.038-.095.038z"/><path data-paper-data="{&quot;glyphName&quot;:&quot;N&quot;,&quot;glyphIndex&quot;:3,&quot;lastGlyphOfWord&quot;:true,&quot;word&quot;:1}" d="M126.568 346.845c.21 0 .381-.172.381-.382 0-.324-.019-.801-.019-1.374a65.796 65.796 0 0 1-.057-3.092c0-.744 0-1.603.02-2.596.018-1.336.018-2.901.018-4.275 0-.993 0-1.909-.019-2.558 0-.038.02-.076.057-.095.02-.02.058-.038.096-.02.343.115.763.268 1.221.44.764.305 1.661.649 2.596 1.069.038.019.077.057.057.095v.668c0 .324 0 .668-.019 1.03-.038 4.6-.038 6.891-.038 10.27v.438c0 .21.153.382.363.382s.382-.172.382-.382v-.439c0-3.378 0-5.668.057-10.268 0-.344 0-.687.019-1.031 0-.534.02-1.03.02-1.47 0-.63-.02-1.126-.04-1.431a.372.372 0 0 0-.362-.344h-.038a.39.39 0 0 0-.343.382v.038c.019.23.019.61.019 1.088 0 .038-.02.076-.058.095-.019.039-.057.039-.095.02-.82-.344-1.603-.65-2.252-.917l-1.909-.687c-.057-.019-.115-.019-.172-.019a.39.39 0 0 0-.343.382v.038c.038.477.038 1.489.038 2.71 0 1.49 0 3.283-.02 4.791-.018 1.145-.018 2.157-.018 2.596 0 1.222.038 2.271.057 3.111.019.515.038.954.038 1.355 0 .21.153.382.363.382z"/><path data-paper-data="{&quot;glyphName&quot;:&quot;A&quot;,&quot;glyphIndex&quot;:4,&quot;firstGlyphOfWord&quot;:true,&quot;word&quot;:2}" d="M166.466 346.845c.038 0 .057-.02.095-.02a.368.368 0 0 0 .286-.362c0-.038 0-.057-.019-.095-.4-1.489-.63-2.844-.897-4.486-.21-1.221-.439-2.614-.782-4.332-.191-.955-.382-1.947-.592-2.959l-.496-2.71a.39.39 0 0 0-.382-.305.355.355 0 0 0-.363.305c-.324 1.813-.763 3.951-1.183 6.146l-.916 4.562c-.096.515-.172 1.05-.248 1.546-.134.801-.249 1.546-.42 2.233a.37.37 0 0 0 .267.458c.19.057.4-.076.458-.267.114-.44.21-.897.286-1.394a.23.23 0 0 1 .096-.095c.19-.02.458-.02.763-.038.4 0 .878.019 1.355.057.516.038.936.076 1.317.096.191 0 .382 0 .573-.02.057 0 .095.039.114.096.096.42.191.859.325 1.298.057.152.19.286.363.286zm-1.356-2.424c-.362 0-.763-.038-1.278-.095a12.152 12.152 0 0 0-1.413-.039c-.21 0-.4 0-.572.02a.146.146 0 0 1-.096-.039c-.019-.019-.038-.057-.019-.095l.23-1.45c.266-1.375.59-2.978.896-4.562.248-1.203.496-2.405.706-3.55.02-.039.058-.096.115-.096s.114.057.114.095c.02.039.02.077.02.115l.591 2.958c.344 1.7.573 3.092.783 4.314.133.82.248 1.565.4 2.29 0 .039 0 .077-.019.096-.038.019-.057.038-.095.038z"/><path data-paper-data="{&quot;glyphName&quot;:&quot;N&quot;,&quot;glyphIndex&quot;:5,&quot;word&quot;:2}" d="M181.908 346.845c.21 0 .382-.172.382-.382 0-.324-.02-.801-.02-1.374a65.796 65.796 0 0 1-.056-3.092c0-.744 0-1.603.019-2.596.019-1.336.019-2.901.019-4.275 0-.993 0-1.909-.02-2.558 0-.038.02-.076.058-.095.019-.02.057-.038.095-.02.344.115.764.268 1.222.44.763.305 1.66.649 2.596 1.069.038.019.076.057.057.095v.668c0 .324 0 .668-.02 1.03-.037 4.6-.037 6.891-.037 10.27v.438c0 .21.152.382.362.382s.382-.172.382-.382v-.439c0-3.378 0-5.668.057-10.268 0-.344 0-.687.02-1.031 0-.534.018-1.03.018-1.47 0-.63-.019-1.126-.038-1.431a.372.372 0 0 0-.362-.344h-.039a.39.39 0 0 0-.343.382v.038c.019.23.019.61.019 1.088 0 .038-.02.076-.057.095-.02.039-.058.039-.096.02-.82-.344-1.603-.65-2.252-.917l-1.909-.687c-.057-.019-.114-.019-.171-.019a.39.39 0 0 0-.344.382v.038c.038.477.038 1.489.038 2.71 0 1.49 0 3.283-.019 4.791-.019 1.145-.019 2.157-.019 2.596 0 1.222.038 2.271.057 3.111.02.515.039.954.039 1.355 0 .21.152.382.362.382z"/><path data-paper-data="{&quot;glyphName&quot;:&quot;D&quot;,&quot;glyphIndex&quot;:6,&quot;lastGlyphOfWord&quot;:true,&quot;word&quot;:2}" d="M202.17 346.864c1.202 0 2.348-.267 3.206-1.412.802-1.07 1.317-2.92 1.317-6.108 0-3.168-.4-5.115-1.145-6.28-.801-1.221-1.928-1.584-3.359-1.584-.21 0-.382.153-.382.363 0 .324.02.859.058 1.527.038.935.095 2.138.095 3.264 0 .725-.038 2.023-.076 3.473-.058 1.775-.115 3.78-.115 5.116 0 .553.02.992.038 1.26 0 .21.153.381.363.381zm.477-.782c-.019 0-.057 0-.076-.039-.02-.019-.038-.038-.038-.076 0-.21-.02-.477-.02-.783 0-1.297.077-3.282.115-5.057.038-1.49.076-2.844.076-3.493 0-1.107-.038-2.329-.095-3.302-.02-.363-.02-.687-.038-.974 0-.019.019-.057.038-.076a.146.146 0 0 1 .095-.038c.936.095 1.68.42 2.214 1.24.668 1.031 1.012 2.844 1.012 5.86 0 2.997-.439 4.714-1.164 5.669-.554.725-1.298.992-2.119 1.069z"/><path data-paper-data="{&quot;glyphName&quot;:&quot;T&quot;,&quot;glyphIndex&quot;:7,&quot;firstGlyphOfWord&quot;:true,&quot;word&quot;:3}" d="M236.938 346.826c.191.019.382-.134.4-.325.02-.305.04-.897.04-1.66 0-1.432-.04-3.436-.077-5.153-.02-1.26-.038-2.386-.038-3.073 0-1.127.057-2.29.095-3.207.02-.363.038-.706.038-.973 0-.039.02-.077.038-.096.02-.019.058-.019.096-.019l.859.057c.381 0 .706-.019 1.03-.076a.368.368 0 0 0 .287-.363v-.076a.386.386 0 0 0-.382-.305h-.057a3.043 3.043 0 0 1-.86.057c-.362 0-.763-.038-1.278-.096a12.152 12.152 0 0 0-1.412-.038c-.592 0-1.05.057-1.222.096a.363.363 0 0 0-.286.343c0 .038 0 .077.019.115a.347.347 0 0 0 .343.286c.039 0 .077 0 .115-.02.133-.018.515-.056 1.03-.075.249 0 .535 0 .821.019.058 0 .115.057.115.114l-.057 1.03c-.039.936-.096 2.12-.096 3.227 0 .553.02 1.736.057 3.092.02 1.813.077 3.912.077 5.325 0 .63-.02 1.126-.038 1.393-.02.21.133.382.343.4z"/><path data-paper-data="{&quot;glyphName&quot;:&quot;R&quot;,&quot;glyphIndex&quot;:8,&quot;word&quot;:3}" d="M254.305 346.864c.21 0 .382-.172.382-.382 0-.343.019-.859.038-1.488.057-.974.096-2.195.096-3.302 0-.42-.02-1.165-.039-2.062 0-.057.058-.095.115-.114a5.477 5.477 0 0 0 1.26-.267c.038-.02.076-.02.095 0 .993.744 1.107 2.194 1.107 3.588v.668c0 .267-.019.553-.019.802 0 1.45.19 2.557 1.546 2.557.21 0 .382-.172.382-.382a.383.383 0 0 0-.382-.381c-.706 0-.783-.821-.783-1.89v-.687c0-.286.02-.592.02-.897 0-1.374-.153-2.768-1.088-3.684-.02-.038-.039-.057-.02-.095 0-.038.02-.077.039-.096.171-.114.324-.248.477-.4.725-.745 1.164-1.814 1.164-3.169 0-1.279-.439-2.176-1.164-2.768-.802-.687-1.966-.935-3.245-.935-.19 0-.343.134-.363.344-.019.248-.038.687-.038 1.26 0 1.336.058 3.34.115 5.134 0 .305.019.61.019.897v.114c.038 1.031.057 1.91.057 2.463 0 1.145-.057 2.328-.095 3.283a29.348 29.348 0 0 0-.058 1.507c0 .21.172.382.382.382zm.573-8.112c-.02.02-.057 0-.077-.019a.145.145 0 0 1-.038-.076l-.019-.458c-.038-1.775-.114-3.76-.114-5.058 0-.306.019-.573.019-.783 0-.038 0-.057.038-.076.019-.038.038-.038.076-.038.916.057 1.718.267 2.29.744.554.458.879 1.164.879 2.195 0 1.145-.344 2.042-.936 2.634-.534.534-1.24.859-2.118.935z"/><path data-paper-data="{&quot;glyphName&quot;:&quot;A&quot;,&quot;glyphIndex&quot;:9,&quot;word&quot;:3}" d="M279.027 346.845c.038 0 .057-.02.095-.02a.368.368 0 0 0 .287-.362c0-.038 0-.057-.02-.095-.4-1.489-.63-2.844-.896-4.486-.21-1.221-.44-2.614-.783-4.332-.19-.955-.382-1.947-.592-2.959l-.496-2.71a.39.39 0 0 0-.382-.305.355.355 0 0 0-.362.305c-.325 1.813-.764 3.951-1.184 6.146l-.916 4.562c-.095.515-.172 1.05-.248 1.546-.134.801-.248 1.546-.42 2.233a.37.37 0 0 0 .267.458c.191.057.401-.076.458-.267.115-.44.21-.897.287-1.394a.23.23 0 0 1 .095-.095c.191-.02.458-.02.764-.038.4 0 .878.019 1.355.057.515.038.935.076 1.317.096.19 0 .381 0 .572-.02.058 0 .096.039.115.096.095.42.19.859.324 1.298.058.152.191.286.363.286zm-1.355-2.424c-.363 0-.764-.038-1.279-.095a12.152 12.152 0 0 0-1.412-.039c-.21 0-.401 0-.573.02a.146.146 0 0 1-.095-.039c-.02-.019-.039-.057-.02-.095l.23-1.45c.267-1.375.591-2.978.897-4.562.248-1.203.496-2.405.706-3.55.019-.039.057-.096.114-.096.058 0 .115.057.115.095.019.039.019.077.019.115l.592 2.958c.343 1.7.572 3.092.782 4.314.134.82.248 1.565.401 2.29 0 .039 0 .077-.019.096-.038.019-.057.038-.095.038z"/><path data-paper-data="{&quot;glyphName&quot;:&quot;C&quot;,&quot;glyphIndex&quot;:10,&quot;word&quot;:3}" d="M295.214 346.845h.039c.458-.02.84-.229 1.164-.592.305-.343.553-.84.744-1.45a.382.382 0 0 0-.267-.477.374.374 0 0 0-.458.248c-.172.515-.344.916-.573 1.183-.19.21-.4.325-.63.325h-.019c-.439 0-.801-.707-1.068-1.795-.325-1.221-.516-2.9-.573-4.657 0-.381-.02-.782-.02-1.202 0-1.985.154-3.608.459-4.696.286-.973.687-1.507 1.221-1.507.191 0 .363.114.516.324.229.286.4.744.572 1.298.039.153.191.267.363.267.02 0 .057 0 .096-.019a.368.368 0 0 0 .286-.363c0-.038 0-.057-.02-.095-.19-.649-.42-1.164-.686-1.546-.325-.4-.688-.61-1.127-.61-.935 0-1.565.725-1.946 2.041-.325 1.184-.478 2.844-.478 4.906 0 .382 0 .782.02 1.221.057 1.814.248 3.55.572 4.83.382 1.43.974 2.366 1.813 2.366z"/><path data-paper-data="{&quot;glyphName&quot;:&quot;K&quot;,&quot;glyphIndex&quot;:11,&quot;lastGlyphOfWord&quot;:true,&quot;word&quot;:3}" d="M311.422 346.845c.21 0 .382-.172.382-.382 0-.324-.02-.801-.039-1.374-.019-.782-.057-1.794-.057-3.092 0-.744.02-1.603.02-2.596 0-.935.018-1.985.018-2.996 0-.02.02-.058.038-.077l.63-.63c.02-.038.058-.038.096-.038s.076.038.095.077c.878 2.023 1.279 3.97 1.642 5.783.362 1.832.706 3.55 1.488 5.115.077.134.21.21.344.21.057 0 .114-.019.172-.038a.4.4 0 0 0 .19-.344c0-.057-.018-.114-.038-.171-.725-1.49-1.068-3.13-1.431-4.906-.382-1.985-.82-4.103-1.851-6.337a.118.118 0 0 1 .019-.133l.649-.706a70.298 70.298 0 0 1 1.908-2.024.377.377 0 0 0 .115-.267.357.357 0 0 0-.382-.363c-.095 0-.19.02-.267.096-.802.802-1.355 1.412-1.928 2.042-.382.42-.783.86-1.279 1.375-.038.038-.076.057-.133.038-.039-.02-.058-.058-.058-.115 0-1.412-.019-2.634-.057-3.168a.39.39 0 0 0-.382-.344h-.038a.39.39 0 0 0-.343.382v.038c.076.878.095 1.87.095 2.901 0 1.565-.057 3.207-.076 4.6 0 1.145-.02 2.157-.02 2.596 0 1.222.039 2.271.058 3.111.019.515.038.954.038 1.355 0 .21.172.382.382.382z"/><path data-paper-data="{&quot;glyphName&quot;:&quot;Y&quot;,&quot;glyphIndex&quot;:12,&quot;firstGlyphOfWord&quot;:true,&quot;word&quot;:4}" d="M346.736 346.845c.21 0 .382-.172.382-.382 0-.324-.02-.782-.038-1.317-.02-.725-.058-1.641-.058-2.844v-.019c.115-.859.993-5 1.165-5.936.152-.897.305-1.698.439-2.424l.42-1.985c.038-.21-.096-.42-.287-.458-.21-.038-.42.077-.458.287-.133.61-.267 1.278-.42 2.023-.133.744-.286 1.546-.439 2.443-.21 1.126-.439 2.252-.668 3.397 0 .038-.057.077-.095.077-.057.019-.115-.02-.115-.077-.21-.878-.42-1.775-.649-2.691-.42-1.699-.84-3.455-1.164-5.153a.386.386 0 0 0-.382-.306h-.057a.366.366 0 0 0-.305.363v.076c.324 1.718.763 3.474 1.164 5.192.286 1.107 1.107 4.027 1.107 5.02 0 1.221.02 2.233.057 3.034 0 .497.02.897.02 1.298 0 .21.171.382.381.382z"/><path data-paper-data="{&quot;glyphName&quot;:&quot;O&quot;,&quot;glyphIndex&quot;:13,&quot;word&quot;:4}" d="M365.435 346.845h.038c1.03-.038 1.775-.744 2.233-1.985.478-1.202.688-2.94.688-5.058 0-2.233-.23-4.409-.726-5.974-.458-1.432-1.183-2.348-2.214-2.348-1.088 0-1.851.726-2.31 2.023-.42 1.184-.61 2.863-.61 4.925 0 .229 0 .496.019.801.038 1.91.267 3.741.687 5.116.458 1.508 1.164 2.5 2.195 2.5zm0-.763c-.63 0-1.126-.764-1.47-1.947-.4-1.317-.61-3.092-.668-4.925v-.782c0-1.985.172-3.589.554-4.676.363-.974.878-1.527 1.603-1.527.65 0 1.145.725 1.508 1.832.458 1.47.668 3.588.668 5.745 0 2.023-.19 3.684-.63 4.79-.343.936-.859 1.47-1.546 1.49z"/><path data-paper-data="{&quot;glyphName&quot;:&quot;U&quot;,&quot;glyphIndex&quot;:14,&quot;word&quot;:4}" d="M385.48 346.845h.02c.84-.02 1.526-.61 2.022-1.527.44-.84.707-1.947.707-3.111v-.802c0-.61 0-1.317.019-2.08 0-1.012.019-2.1.019-2.997 0-1.221-.038-2.271-.057-3.11-.02-.516-.02-.955-.02-1.356a.383.383 0 0 0-.381-.382.383.383 0 0 0-.382.382c0 .324.02.802.038 1.374.02.802.038 1.794.038 3.092 0 1.107 0 2.08-.019 2.978-.019 1.088-.019 2.08-.019 2.825v.076c0 1.03-.229 2.023-.61 2.768-.363.668-.84 1.107-1.375 1.107-.515 0-.954-.401-1.279-1.012-.381-.764-.61-1.813-.61-2.94 0-.858-.02-1.736-.02-2.595-.019-.764-.038-1.508-.038-2.272 0-.496 0-.973.02-1.488v-2.539c-.02-.343-.02-.649-.02-.897 0-.172 0-.324.02-.439 0-.21-.153-.4-.363-.42a.368.368 0 0 0-.401.344c0 .152-.02.343-.02.591 0 .249.02.516.02.84.02.401.02.86.02 1.355 0 .363 0 .745-.02 1.146-.02.42-.02.82-.02 1.221 0 .878.02 1.718.04 2.577.018.782.037 1.584.037 2.577 0 1.24.248 2.424.687 3.283.458.878 1.126 1.431 1.947 1.431z"/><path data-paper-data="{&quot;glyphName&quot;:&quot;R&quot;,&quot;glyphIndex&quot;:15,&quot;lastGlyphOfWord&quot;:true,&quot;word&quot;:4}" d="M403.563 346.864c.21 0 .382-.172.382-.382 0-.343.019-.859.038-1.488.057-.974.095-2.195.095-3.302 0-.42-.019-1.165-.038-2.062 0-.057.057-.095.115-.114a5.477 5.477 0 0 0 1.26-.267c.038-.02.076-.02.095 0 .992.744 1.107 2.194 1.107 3.588v.668c0 .267-.02.553-.02.802 0 1.45.192 2.557 1.547 2.557.21 0 .381-.172.381-.382a.383.383 0 0 0-.381-.381c-.706 0-.783-.821-.783-1.89v-.687c0-.286.02-.592.02-.897 0-1.374-.153-2.768-1.089-3.684-.019-.038-.038-.057-.019-.095 0-.038.02-.077.038-.096.172-.114.325-.248.478-.4.725-.745 1.164-1.814 1.164-3.169 0-1.279-.44-2.176-1.164-2.768-.802-.687-1.966-.935-3.245-.935-.191 0-.344.134-.363.344-.019.248-.038.687-.038 1.26 0 1.336.057 3.34.115 5.134 0 .305.019.61.019.897v.114c.038 1.031.057 1.91.057 2.463 0 1.145-.057 2.328-.096 3.283a29.348 29.348 0 0 0-.057 1.507c0 .21.172.382.382.382zm.573-8.112c-.02.02-.058 0-.077-.019a.145.145 0 0 1-.038-.076l-.02-.458c-.037-1.775-.114-3.76-.114-5.058 0-.306.02-.573.02-.783 0-.038 0-.057.038-.076.019-.038.038-.038.076-.038.916.057 1.718.267 2.29.744.554.458.878 1.164.878 2.195 0 1.145-.343 2.042-.935 2.634-.534.534-1.24.859-2.118.935z"/><path data-paper-data="{&quot;glyphName&quot;:&quot;D&quot;,&quot;glyphIndex&quot;:16,&quot;firstGlyphOfWord&quot;:true,&quot;word&quot;:5}" d="M437.09 346.864c1.203 0 2.349-.267 3.207-1.412.802-1.07 1.317-2.92 1.317-6.108 0-3.168-.4-5.115-1.145-6.28-.801-1.221-1.928-1.584-3.359-1.584-.21 0-.382.153-.382.363 0 .324.02.859.058 1.527.038.935.095 2.138.095 3.264 0 .725-.038 2.023-.076 3.473-.058 1.775-.115 3.78-.115 5.116 0 .553.02.992.038 1.26 0 .21.153.381.363.381zm.478-.782c-.019 0-.057 0-.076-.039-.02-.019-.038-.038-.038-.076 0-.21-.02-.477-.02-.783 0-1.297.077-3.282.115-5.057.038-1.49.076-2.844.076-3.493 0-1.107-.038-2.329-.095-3.302-.02-.363-.02-.687-.038-.974 0-.019.019-.057.038-.076a.146.146 0 0 1 .095-.038c.936.095 1.68.42 2.214 1.24.668 1.031 1.012 2.844 1.012 5.86 0 2.997-.439 4.714-1.164 5.669-.554.725-1.298.992-2.119 1.069z"/><path data-paper-data="{&quot;glyphName&quot;:&quot;A&quot;,&quot;glyphIndex&quot;:17,&quot;word&quot;:5}" d="M461.185 346.845c.038 0 .057-.02.095-.02a.368.368 0 0 0 .287-.362c0-.038 0-.057-.02-.095-.4-1.489-.63-2.844-.897-4.486-.21-1.221-.439-2.614-.782-4.332-.191-.955-.382-1.947-.592-2.959l-.496-2.71a.39.39 0 0 0-.382-.305.355.355 0 0 0-.363.305c-.324 1.813-.763 3.951-1.183 6.146l-.916 4.562c-.095.515-.172 1.05-.248 1.546-.134.801-.248 1.546-.42 2.233a.37.37 0 0 0 .267.458c.191.057.4-.076.458-.267.115-.44.21-.897.286-1.394a.23.23 0 0 1 .096-.095c.19-.02.458-.02.763-.038.401 0 .878.019 1.356.057.515.038.935.076 1.317.096.19 0 .381 0 .572-.02.057 0 .096.039.115.096.095.42.19.859.324 1.298.057.152.191.286.363.286zm-1.355-2.424c-.363 0-.764-.038-1.28-.095a12.152 12.152 0 0 0-1.412-.039c-.21 0-.4 0-.572.02a.146.146 0 0 1-.096-.039c-.019-.019-.038-.057-.019-.095l.23-1.45c.267-1.375.591-2.978.896-4.562.249-1.203.497-2.405.707-3.55.019-.039.057-.096.114-.096s.115.057.115.095c.019.039.019.077.019.115l.591 2.958c.344 1.7.573 3.092.783 4.314.134.82.248 1.565.4 2.29 0 .039 0 .077-.018.096-.038.019-.058.038-.096.038z"/><path data-paper-data="{&quot;glyphName&quot;:&quot;Y&quot;,&quot;glyphIndex&quot;:18,&quot;lastGlyphOfWord&quot;:true,&quot;word&quot;:5}" d="M477.977 346.845c.21 0 .381-.172.381-.382 0-.324-.019-.782-.038-1.317-.019-.725-.057-1.641-.057-2.844v-.019c.114-.859.992-5 1.164-5.936.153-.897.306-1.698.44-2.424l.42-1.985c.037-.21-.096-.42-.287-.458-.21-.038-.42.077-.458.287-.134.61-.267 1.278-.42 2.023-.134.744-.286 1.546-.44 2.443-.21 1.126-.438 2.252-.667 3.397 0 .038-.057.077-.096.077-.057.019-.114-.02-.114-.077-.21-.878-.42-1.775-.65-2.691-.419-1.699-.839-3.455-1.163-5.153a.386.386 0 0 0-.382-.306h-.057a.366.366 0 0 0-.306.363v.076c.325 1.718.764 3.474 1.165 5.192.286 1.107 1.107 4.027 1.107 5.02 0 1.221.019 2.233.057 3.034 0 .497.019.897.019 1.298 0 .21.172.382.382.382z"/></g><g data-paper-data="{&quot;isPrimaryText&quot;:true}" fill-rule="nonzero"><path data-paper-data="{&quot;glyphName&quot;:&quot;C&quot;,&quot;glyphIndex&quot;:0,&quot;firstGlyphOfWord&quot;:true,&quot;word&quot;:1}" d="M69.005 314.114c1.368 2.085 3.452 3.974 5.667 5.016 1.172.586 2.736 1.173 3.778 1.368 2.15.326 4.43.13 6.71-.651 2.28-.717 3.973-1.824 5.992-3.974.716-.716 1.042-1.172 1.042-1.368 0-.39-4.104-4.56-4.494-4.56-.196 0-.521.196-.782.457-1.889 1.758-4.104 2.605-6.253 2.54-1.629-.13-2.671-.717-3.843-2.15-1.108-1.433-1.76-2.93-2.41-5.406-.978-4.039-1.108-8.598-.522-13.028.782-5.602 3.127-9.054 6.254-9.25 2.084-.13 3.778 1.043 4.494 3.127.391 1.108.586 2.215.652 4.234.065 2.02.13 2.215.65 2.215.131 0 1.304-.26 2.541-.586 1.303-.326 2.606-.652 2.997-.717.977-.26 1.107-.39 1.042-1.368 0-1.107-.586-3.778-1.107-5.406-.847-2.54-2.15-4.69-3.713-5.928-.782-.716-2.736-1.758-3.909-2.084-.912-.326-2.605-.586-3.647-.586-4.039 0-8.924 2.93-11.334 6.709-1.694 2.605-3.257 7.882-3.713 12.702-.196 1.628-.065 5.406.13 7.36.716 5.211 1.694 8.208 3.778 11.334z"/><path data-paper-data="{&quot;glyphName&quot;:&quot;A&quot;,&quot;glyphIndex&quot;:1,&quot;word&quot;:1}" d="M98.252 319.195c2.67.847 2.736.847 2.931.586.13-.195.456-1.498.782-2.996.26-1.498.586-2.8.651-2.931.065-.196.196-.196 4.3-.326 2.344-.065 4.299-.13 4.299-.065.065.065.39 1.694.781 3.648.391 2.02.782 3.778.847 3.973.065.26.195.326.39.326.392 0 5.472-1.498 5.603-1.694.13-.13.065-.651-.391-3.908-.326-2.02-.912-6.449-1.368-9.836-.39-3.387-.912-7.1-1.107-8.338-.587-3.843-1.629-10.747-2.085-13.679-.26-1.563-.586-3.843-.781-5.145-.196-1.434-.391-2.476-.456-2.54-.13-.131-.456-.131-1.694 0-.847.13-2.54.26-3.713.325-1.238.065-2.28.195-2.28.26-.325.326-1.758 5.211-3.126 10.422-.521 1.955-1.238 4.82-1.694 6.45-.716 2.474-2.8 10.617-4.3 16.805-.65 2.736-1.432 6.644-1.367 6.904.065.522.39.717 3.778 1.76zm7.1-17.261c.717-2.736 1.498-6.189 1.89-7.622.39-1.693.65-2.54.716-2.41.13.326.651 4.039 1.237 8.077.26 2.085.586 4.43.717 5.277.13.912.195 1.628.195 1.628-.13.13-5.927.196-5.927.065 0 0 .52-2.28 1.172-5.015z"/><path data-paper-data="{&quot;glyphName&quot;:&quot;T&quot;,&quot;glyphIndex&quot;:2,&quot;word&quot;:1}" d="m119.161 283.63.26.26 1.434-.13c.782-.065 2.606-.195 4.039-.26 1.498-.13 2.996-.196 3.452-.261l.782-.065.065 2.736c.065 1.498.13 8.077.195 14.656.065 7.881.13 12.832.26 14.851.13 1.629.196 3.453.196 4.039 0 1.368 0 1.433 1.368 1.433 2.345.13 4.885.13 5.276 0 .326-.065.456-.196.456-.391.065-.195.065-1.303 0-2.606 0-1.237-.065-7.556-.13-13.94 0-12.05-.065-19.54-.196-20.387l-.065-.456h.847c1.368 0 6.58.325 8.468.456 1.173.13 1.694.195 1.824.065.13-.13.26-2.997.26-5.928 0-1.954 0-2.02-.26-2.15-.13-.065-.782-.13-1.954-.13-.912 0-5.928.065-11.074.065-10.292.066-15.242.196-15.633.456-.26.196-.26.261-.26 1.955 0 .912.065 2.54.065 3.582.065 1.694.13 1.89.325 2.15z"/><path data-paper-data="{&quot;glyphName&quot;:&quot;L&quot;,&quot;glyphIndex&quot;:3,&quot;word&quot;:1}" d="M151.535 317.567c.196 2.54.196 2.67.39 2.866.261.195.717.13 3.258-.13 2.41-.326 7.295-.652 12.18-.912 2.02-.066 3.192-.196 3.388-.26l.26-.131-.065-1.694c-.195-3.648-.39-4.69-.847-4.95-.325-.13-1.563-.065-7.295.586-2.28.26-4.234.456-4.234.39-.065 0-.13-2.67-.195-5.992-.066-3.257-.196-8.012-.26-10.487-.261-7.752-.327-8.99-.392-14.721-.065-4.82-.13-5.602-.26-5.733-.13-.195-.391-.195-2.215-.065-2.15.13-4.234.456-4.495.717-.13.195-.195.847-.195 4.69.065 11.073.521 30.028.977 35.826z"/><path data-paper-data="{&quot;glyphName&quot;:&quot;E&quot;,&quot;glyphIndex&quot;:4,&quot;word&quot;:1}" d="M177.46 319.325c1.368.717 3.322 1.238 5.667 1.434 2.41.26 5.537-.326 7.882-1.434 1.693-.781 3.843-2.605 4.95-4.103 1.564-2.28 2.41-4.82 2.54-8.012.131-2.736-.325-5.211-.976-5.472-.13-.065-.521 0-.912.065-1.042.26-5.016 1.498-5.342 1.694-.26.195-.26.13 0 1.954.196 1.563-.195 3.583-1.042 4.82-.781 1.238-2.15 2.215-3.582 2.54-1.043.261-2.736.196-3.453-.064-1.433-.587-2.736-2.085-3.191-3.778-.587-2.15-.066-5.212 1.172-7.166 1.107-1.693 3.257-2.93 5.862-3.387 1.108-.195 1.303-.39 1.433-.977.13-.651.717-2.736 1.043-3.843.325-.782.325-1.042.26-1.303-.13-.39-.065-.326-2.605-.13-.912.065-2.02.065-2.41.065-3.583-.39-5.537-2.28-4.95-4.755.39-1.694 1.628-3.322 3.06-4.039 1.564-.716 2.671-.846 3.844-.26 1.107.52 2.15 2.019 2.41 3.582.065.587.195.717.39.847.261.13.457.065 2.867-1.107 2.866-1.433 3.322-1.759 3.322-2.345 0-1.042-1.238-3.713-2.345-5.016-2.085-2.475-5.667-3.843-9.25-3.517-3.713.325-6.774 1.758-9.12 4.169-1.888 1.889-3.19 4.299-3.647 6.448-.26 1.303-.26 3.257.065 4.56.391 1.433 1.173 2.866 2.085 3.778.781.782 1.302 1.107 2.54 1.628.39.13.782.391.782.456 0 .066-.26.261-.586.391-3.192 1.564-5.342 6.253-5.342 11.855 0 1.694.065 1.955.326 2.997.912 3.322 2.931 5.797 6.253 7.426z"/><path data-paper-data="{&quot;glyphName&quot;:&quot;N&quot;,&quot;glyphIndex&quot;:5,&quot;word&quot;:1}" d="M201.887 312.095c.195 2.085.521 5.211.782 6.97.195 1.172.26 1.368.52 1.563.196.196.392.26.587.196.13 0 1.303-.065 2.605-.13a60.614 60.614 0 0 0 3.257-.261l.912-.065v-.391c0-.26-.065-1.173-.195-2.02-.651-5.601-.977-12.18-.912-18.629v-3.387l.326.651c.13.326 1.042 2.215 1.954 4.17.912 1.953 2.084 4.428 2.54 5.34 2.54 5.472 7.36 14.722 7.817 15.112.13.066.39.13.781.066 1.499-.13 2.476-.196 4.756-.196 1.889 0 2.475 0 2.67-.13.13-.13.196-.326.196-1.303 0-.651.065-2.215.13-3.517.26-4.56.326-7.1.521-11.204 0-.847.13-2.475.13-3.648.196-3.257.065-16.805-.13-19.737-.195-3.191-.586-5.341-1.042-5.602-.065 0-1.042-.065-2.215-.13-2.15-.13-4.234 0-4.625.26-.13.131-.13.392.065 3.062.196 2.931.261 12.05.066 15.503 0 .782-.066 3.843-.13 6.774 0 2.997-.066 5.407-.066 5.407-.13.13-.195-.065-1.107-2.15a300.55 300.55 0 0 1-8.077-19.541c-2.02-5.472-3.062-7.882-3.648-8.924-.26-.326-.326-.39-.847-.456-.326-.065-1.954-.065-3.582-.065-3.192.065-3.713.13-3.844.651-.26.782-.586 4.886-.781 9.576-.196 4.95 0 18.694.39 23.124 0 .781.13 2.15.196 3.061z"/><path data-paper-data="{&quot;glyphName&quot;:&quot;D&quot;,&quot;glyphIndex&quot;:6,&quot;word&quot;:1}" d="M253.476 283.89c-1.758-3.126-2.996-4.299-6.253-6.123-2.02-1.107-4.494-1.758-7.36-1.889-1.433-.13-4.756.13-5.016.391-.456.521-.977 16.74-.717 23.906.326 8.207.847 14.656 1.499 18.239.325 1.498.39 1.823.716 2.15.196.26 1.433.26 3.648.13 3.126-.261 5.276-.847 7.295-1.824 3.322-1.694 4.95-3.453 6.84-7.23 1.368-2.867 2.215-5.798 2.605-9.576.326-2.41.326-7.165 0-9.51-.39-2.801-1.368-5.407-3.257-8.664zm-3.582 10.944c.195 2.15-.196 6.188-.847 8.663-1.042 3.908-3.061 7.165-5.406 8.794-.326.195-.652.39-.717.39-.195 0-.847-5.927-1.172-10.943-.13-2.41-.196-19.476-.066-19.606.066 0 .391.13.782.325 4.234 2.15 6.84 6.449 7.426 12.377z"/><path data-paper-data="{&quot;glyphName&quot;:&quot;A&quot;,&quot;glyphIndex&quot;:7,&quot;word&quot;:1}" d="M261.88 319.195c2.67.847 2.735.847 2.93.586.13-.195.456-1.498.782-2.996.26-1.498.586-2.8.652-2.931.065-.196.195-.196 4.299-.326 2.345-.065 4.299-.13 4.299-.065.065.065.39 1.694.781 3.648.391 2.02.782 3.778.847 3.973.065.26.196.326.391.326.39 0 5.472-1.498 5.602-1.694.13-.13.065-.651-.39-3.908-.327-2.02-.913-6.449-1.369-9.836-.39-3.387-.912-7.1-1.107-8.338-.586-3.843-1.629-10.747-2.085-13.679-.26-1.563-.586-3.843-.781-5.145-.196-1.434-.391-2.476-.456-2.54-.13-.131-.456-.131-1.694 0-.847.13-2.54.26-3.713.325-1.237.065-2.28.195-2.28.26-.325.326-1.758 5.211-3.126 10.422-.521 1.955-1.238 4.82-1.694 6.45-.716 2.474-2.8 10.617-4.299 16.805-.651 2.736-1.433 6.644-1.368 6.904.065.522.391.717 3.778 1.76zm7.1-17.261c.716-2.736 1.498-6.189 1.888-7.622.391-1.693.652-2.54.717-2.41.13.326.651 4.039 1.237 8.077.261 2.085.587 4.43.717 5.277.13.912.195 1.628.195 1.628-.13.13-5.927.196-5.927.065 0 0 .521-2.28 1.172-5.015z"/><path data-paper-data="{&quot;glyphName&quot;:&quot;R&quot;,&quot;glyphIndex&quot;:8,&quot;word&quot;:1}" d="M300.05 290.925c-1.172 1.042-3.908 2.215-6.318 2.606-.521.065-1.173.195-1.433.195h-.456v-5.862l.065-5.798.717-.13c.911-.195 2.8-.195 3.778-.065 2.866.456 5.21 2.41 5.601 4.755.13.651.13.847-.065 1.498-.26.847-.977 1.954-1.889 2.801zm-7.751 28.856c-.13-.977-.26-5.08-.391-11.334 0-3.778-.065-6.84-.065-6.904.065 0 .651-.13 1.303-.326.716-.195 1.628-.39 2.019-.521.39-.13.716-.195.782-.195.13.195 2.67 6.513 4.299 10.747 2.41 6.319 3.908 9.967 4.169 10.227.13.065.26.195.26.195.39 0 4.364-2.15 4.885-2.605.391-.39.326-.651-.13-1.694-.195-.456-.847-2.214-1.498-3.973-.586-1.694-1.759-4.82-2.54-6.905-1.433-4.103-2.15-6.253-2.671-8.142l-.326-1.107 1.694-1.694c1.824-1.824 2.475-2.605 3.257-4.3.716-1.497.977-2.54.977-4.168 0-2.996-.977-5.406-3.127-7.556-2.084-2.02-4.82-3.387-8.338-4.039-2.475-.456-10.552 0-11.399.652l-.195.195-.065 10.553c-.065 11.203 0 27.032.195 31.07.13 2.932.196 3.062 1.042 3.062.326 0 1.238-.065 2.02-.195.781-.065 1.889-.196 2.475-.196 1.238-.13 1.498-.26 1.368-.847z"/><path data-paper-data="{&quot;glyphName&quot;:&quot;.&quot;,&quot;glyphIndex&quot;:9,&quot;word&quot;:1}" d="M314.967 320.628c.521.13 1.759.13 2.215-.13.977-.521 1.693-1.694 1.758-3.062.196-2.214-.977-3.582-3.191-3.712-.717-.066-.847-.066-1.499.325-.586.26-.781.456-1.107.912-.26.391-.521.847-.586 1.042-.13.587-.13 1.89.065 2.41.326.912 1.238 1.76 2.345 2.215z"/><path data-paper-data="{&quot;glyphName&quot;:&quot;O&quot;,&quot;glyphIndex&quot;:10,&quot;word&quot;:1}" d="M340.501 283.63c3.062.977 5.341 4.364 6.384 9.314.39 1.694.52 5.146.325 6.905-.586 4.43-2.214 8.208-4.624 10.422a7.283 7.283 0 0 1-2.997 1.694c-1.433.326-2.54.195-3.908-.521-2.345-1.238-4.234-4.17-5.211-8.012-.456-1.89-.586-3.192-.586-5.342 0-9.119 5.276-16.219 10.617-14.46zm-12.376 32.113c2.41 2.41 5.015 3.843 7.882 4.299 1.107.195 3.452.195 4.429-.065 1.889-.391 3.778-1.173 5.406-2.345 1.173-.847 3.257-2.931 4.17-4.104 3.908-5.471 5.536-13.093 4.364-20.518-1.499-9.185-7.296-16.09-14.396-17.132-1.238-.13-3.517-.065-4.69.26-5.406 1.304-10.031 6.059-12.246 12.638-1.107 3.191-1.433 5.536-1.433 9.314 0 3.648.326 5.863 1.303 8.86 1.172 3.582 2.8 6.383 5.21 8.793z"/><path data-paper-data="{&quot;glyphName&quot;:&quot;N&quot;,&quot;glyphIndex&quot;:11,&quot;word&quot;:1}" d="M358.088 312.095c.196 2.085.522 5.211.782 6.97.196 1.172.26 1.368.521 1.563.196.196.391.26.586.196.13 0 1.303-.065 2.606-.13a60.614 60.614 0 0 0 3.257-.261l.912-.065v-.391c0-.26-.065-1.173-.196-2.02-.651-5.601-.977-12.18-.912-18.629v-3.387l.326.651c.13.326 1.042 2.215 1.954 4.17.912 1.953 2.085 4.428 2.54 5.34 2.541 5.472 7.361 14.722 7.817 15.112.13.066.391.13.782.066 1.498-.13 2.475-.196 4.755-.196 1.89 0 2.475 0 2.67-.13.131-.13.196-.326.196-1.303 0-.651.065-2.215.13-3.517.261-4.56.326-7.1.522-11.204 0-.847.13-2.475.13-3.648.195-3.257.065-16.805-.13-19.737-.196-3.191-.587-5.341-1.043-5.602-.065 0-1.042-.065-2.214-.13-2.15-.13-4.234 0-4.625.26-.13.131-.13.392.065 3.062.195 2.931.26 12.05.065 15.503 0 .782-.065 3.843-.13 6.774 0 2.997-.065 5.407-.065 5.407-.13.13-.196-.065-1.108-2.15a300.55 300.55 0 0 1-8.077-19.541c-2.02-5.472-3.061-7.882-3.648-8.924-.26-.326-.325-.39-.846-.456-.326-.065-1.955-.065-3.583-.065-3.192.065-3.713.13-3.843.651-.26.782-.586 4.886-.782 9.576-.195 4.95 0 18.694.391 23.124 0 .781.13 2.15.195 3.061z"/><path data-paper-data="{&quot;glyphName&quot;:&quot;L&quot;,&quot;glyphIndex&quot;:12,&quot;word&quot;:1}" d="M391.179 317.567c.195 2.54.195 2.67.39 2.866.261.195.717.13 3.257-.13 2.41-.326 7.296-.652 12.181-.912 2.02-.066 3.192-.196 3.387-.26l.261-.131-.065-1.694c-.196-3.648-.391-4.69-.847-4.95-.326-.13-1.563-.065-7.295.586-2.28.26-4.234.456-4.234.39-.066 0-.13-2.67-.196-5.992-.065-3.257-.195-8.012-.26-10.487-.26-7.752-.326-8.99-.391-14.721-.065-4.82-.13-5.602-.26-5.733-.131-.195-.392-.195-2.215-.065-2.15.13-4.234.456-4.495.717-.13.195-.195.847-.195 4.69.065 11.073.52 30.028.977 35.826z"/><path data-paper-data="{&quot;glyphName&quot;:&quot;I&quot;,&quot;glyphIndex&quot;:13,&quot;word&quot;:1}" d="M414.498 320.237c.196.261.717.261 2.215.066.521-.066 1.824-.13 2.866-.196 1.824-.065 1.824-.065 2.084-.326l.26-.325-.064-9.836v-21.3c0-6.254 0-11.53-.065-11.725-.13-.521-.521-.652-1.955-.717-1.042-.065-4.56.13-5.797.326-.716.13-.781.195-.651 3.517 0 1.564 0 4.886-.065 7.361-.196 7.556.13 21.105.651 30.224.13 2.15.26 2.606.521 2.931z"/><path data-paper-data="{&quot;glyphName&quot;:&quot;N&quot;,&quot;glyphIndex&quot;:14,&quot;word&quot;:1}" d="M425.246 312.095c.195 2.085.521 5.211.782 6.97.195 1.172.26 1.368.52 1.563.196.196.392.26.587.196.13 0 1.303-.065 2.606-.13a60.614 60.614 0 0 0 3.256-.261l.912-.065v-.391c0-.26-.065-1.173-.195-2.02-.651-5.601-.977-12.18-.912-18.629v-3.387l.326.651c.13.326 1.042 2.215 1.954 4.17.912 1.953 2.084 4.428 2.54 5.34 2.54 5.472 7.36 14.722 7.817 15.112.13.066.39.13.781.066 1.499-.13 2.476-.196 4.756-.196 1.889 0 2.475 0 2.67-.13.13-.13.196-.326.196-1.303 0-.651.065-2.215.13-3.517.26-4.56.326-7.1.521-11.204 0-.847.13-2.475.13-3.648.196-3.257.065-16.805-.13-19.737-.195-3.191-.586-5.341-1.042-5.602-.065 0-1.042-.065-2.215-.13-2.15-.13-4.234 0-4.625.26-.13.131-.13.392.065 3.062.196 2.931.261 12.05.066 15.503 0 .782-.066 3.843-.13 6.774 0 2.997-.066 5.407-.066 5.407-.13.13-.195-.065-1.107-2.15a300.55 300.55 0 0 1-8.077-19.541c-2.02-5.472-3.062-7.882-3.648-8.924-.26-.326-.326-.39-.847-.456-.326-.065-1.954-.065-3.582-.065-3.192.065-3.713.13-3.844.651-.26.782-.586 4.886-.781 9.576-.196 4.95 0 18.694.39 23.124 0 .781.13 2.15.196 3.061z"/><path data-paper-data="{&quot;glyphName&quot;:&quot;E&quot;,&quot;glyphIndex&quot;:15,&quot;lastGlyphOfWord&quot;:true,&quot;word&quot;:1}" d="M463.938 319.325c1.368.717 3.322 1.238 5.667 1.434 2.41.26 5.537-.326 7.882-1.434 1.693-.781 3.843-2.605 4.95-4.103 1.564-2.28 2.41-4.82 2.54-8.012.131-2.736-.325-5.211-.976-5.472-.13-.065-.521 0-.912.065-1.042.26-5.016 1.498-5.342 1.694-.26.195-.26.13 0 1.954.196 1.563-.195 3.583-1.042 4.82-.781 1.238-2.15 2.215-3.582 2.54-1.043.261-2.736.196-3.453-.064-1.433-.587-2.736-2.085-3.192-3.778-.586-2.15-.065-5.212 1.173-7.166 1.107-1.693 3.257-2.93 5.862-3.387 1.108-.195 1.303-.39 1.433-.977.13-.651.717-2.736 1.043-3.843.325-.782.325-1.042.26-1.303-.13-.39-.065-.326-2.605-.13-.912.065-2.02.065-2.41.065-3.583-.39-5.537-2.28-4.951-4.755.39-1.694 1.629-3.322 3.062-4.039 1.563-.716 2.67-.846 3.843-.26 1.107.52 2.15 2.019 2.41 3.582.065.587.195.717.39.847.261.13.457.065 2.867-1.107 2.866-1.433 3.322-1.759 3.322-2.345 0-1.042-1.238-3.713-2.345-5.016-2.085-2.475-5.667-3.843-9.25-3.517-3.713.325-6.774 1.758-9.12 4.169-1.888 1.889-3.191 4.299-3.647 6.448-.26 1.303-.26 3.257.065 4.56.391 1.433 1.173 2.866 2.085 3.778.781.782 1.302 1.107 2.54 1.628.39.13.782.391.782.456 0 .066-.26.261-.587.391-3.191 1.564-5.34 6.253-5.34 11.855 0 1.694.064 1.955.325 2.997.912 3.322 2.931 5.797 6.253 7.426z"/></g><g data-paper-data="{&quot;fillRule&quot;:&quot;evenodd&quot;,&quot;fillRuleOriginal&quot;:&quot;evenodd&quot;,&quot;isIcon&quot;:true,&quot;iconStyle&quot;:&quot;standalone&quot;,&quot;selectedEffects&quot;:{&quot;container&quot;:&quot;&quot;,&quot;transformation&quot;:&quot;&quot;,&quot;pattern&quot;:&quot;&quot;},&quot;bounds&quot;:{&quot;x&quot;:179.17576465980432,&quot;y&quot;:123.13587422994163,&quot;width&quot;:191.64847068039137,&quot;height&quot;:126.27150200621116},&quot;iconType&quot;:&quot;icon&quot;,&quot;isDetailed&quot;:true,&quot;source&quot;:&quot;ai&quot;,&quot;rawIconId&quot;:&quot;AKxkwBp2VmY_36008EV1JBGHb7VC4z6wuXHfXc4ws9&quot;,&quot;suitableAsStandaloneIcon&quot;:true}" fill-rule="evenodd"><path data-paper-data="{&quot;isPathIcon&quot;:true}" d="M234.06 132.833c3.45-3.814 7.96-7.365 11.45-9.016 1.791-.847 2.61-.897 3.063-.189.18.284.654 1.442 1.052 2.574 1.843 5.255 2.95 11.416 3.08 17.164.07 3.146.13 3.565.647 4.589 1.64 3.246 3.407 8.44 3.717 10.923.09.718.236 1.351.325 1.406.089.055 1.117-.207 2.285-.583 2.408-.774 4.134-1.077 4.134-.726 0 .407-.51.658-3.375 1.659l-2.802.979v3.993l2.22.163c2.294.169 3.167.427 2.9.858-.104.17-.962.2-2.724.095l-2.572-.153-.35 1.552c-.553 2.442-1.234 4.027-2.659 6.185-2.507 3.799-6.227 6.924-11.518 9.677l-2.462 1.28 4.33 5.413c2.381 2.977 5.095 6.315 6.03 7.419 5.765 6.805 10.352 14.125 12.077 19.275 3.935 11.744-.016 24.993-8.762 29.387-2.62 1.317-4.531 1.727-8.064 1.73-4.025.004-5.382-.5-6.325-2.347l-.48-.941-.42 1.106c-.921 2.428-2.191 3.09-5.931 3.096-1.447.002-3.04-.11-3.541-.249-1.185-.329-2.528-1.682-2.82-2.842-.127-.498-.299-5.025-.383-10.058-.085-5.034-.228-9.821-.317-10.64-.32-2.911-.56 4.003-.43 12.384.111 7.24.087 7.999-.282 8.809-.908 1.996-2.33 2.602-6.105 2.602-2.809 0-3.585-.197-4.8-1.222l-.718-.605-1.05.464c-1.469.65-7.737.739-9.983.142-4.925-1.31-8.724-4.583-11.327-9.76-1.868-3.716-2.507-6.689-2.483-11.555.04-7.762 1.89-12.483 10.22-26.082 5.115-8.348 6.793-11.147 6.793-11.332 0-.105-.57-.308-1.267-.453-1.748-.363-5.36-1.611-7.476-2.585-1.9-.874-3.324-1.775-5.041-3.193l-1.086-.896-.973.472c-.536.26-1.688.932-2.56 1.495-1.553 1-1.96 1.102-1.96.49 0-.355.932-1.083 2.912-2.273.784-.47 1.472-.933 1.53-1.027.058-.093-.342-.812-.888-1.596-.546-.785-1.329-2.272-1.74-3.306-.41-1.033-.773-1.915-.807-1.959-.034-.043-1.33.144-2.879.418-1.55.274-3.163.557-3.585.629-.66.112-.755.071-.685-.296.099-.51 1.616-1.022 4.734-1.597l2.137-.394-.126-.712c-.648-3.67-.673-6.384-.11-12.382l.256-2.745-.698-2.174c-.897-2.791-1.334-5.126-1.673-8.943-.418-4.71.03-12.753.759-13.65.546-.671 4.236-.019 7.898 1.395 2.523.975 6.67 3.05 9.064 4.535 1.012.627 2 1.14 2.194 1.137.195-.002 1.712-.465 3.372-1.03 6.286-2.138 13.316-3.336 20.423-3.48l4.45-.09zm46.776 14.962c.26-17.748.694-22.137 2.373-24.052.818-.932 3.132-.281 7.21 2.027 2.001 1.134 6.857 4.552 8.4 5.913.513.453.761.494 2.421.407l1.85-.099.281-.778c.377-1.041 1.284-1.099 1.7-.107l.282.67 15.2.21v-.539c0-.605.69-1.084 1.251-.87.203.079.508.475.678.883l.31.74 2.256.126c2.073.115 2.285.088 2.62-.338.263-.334.505-.418.869-.303.392.125.719-.037 1.466-.724 3.419-3.145 10.311-7.104 12.784-7.342 2.98-.287 3.337 2.532 2.768 21.81-.208 7.05-.31 12.999-.226 13.217.137.357.408.381 2.674.244 1.764-.107 2.523-.078 2.523.096 0 .421-.459.574-2.847.947l-2.301.36-.07 1.236c-.076 1.324.113 1.613 1.054 1.62.29.002 1.242.166 2.117.365 1.135.258 1.59.463 1.59.72 0 .366-.957.345-3.833-.082l-.973-.145v3.926l2.289 1.076c1.258.592 2.287 1.215 2.287 1.385 0 .5-.74.36-2.583-.492-.954-.44-1.792-.8-1.863-.8-.072 0-.127 3.216-.125 7.149l.005 7.15 1.159.686c1.377.816 3.3 2.782 3.743 3.829.214.505.353.636.43.403.063-.188.392-1.218.732-2.287 1.06-3.331 2.248-5.378 4.326-7.45 2.004-2 3.395-2.819 5.84-3.439 4.279-1.085 8.818.813 9.278 3.877.228 1.519-.405 2.627-2.89 5.067-5.435 5.336-6.745 7.863-9.138 17.62-1.544 6.3-2.481 9.08-4.048 12.008-2.771 5.182-5.949 8.655-9.604 10.497-.8.403-1.008.652-1.223 1.458-.85 3.194-3.984 9.665-6.522 13.463-1.857 2.779-5.099 6.82-6.36 7.927-2.075 1.823-4.635 2.56-6.617 1.906-2.162-.713-3.988-3.085-4.492-5.835-.136-.747-.25-3.012-.25-5.034s-.109-4.345-.239-5.163c-.51-3.194-2.534-6.03-5.196-7.278-1.15-.54-1.596-.615-3.6-.615-2.065 0-2.415.064-3.58.655-2.368 1.199-4.147 3.528-4.742 6.208-.14.63-.36 2.946-.49 5.148-.402 6.793-.74 8.2-2.43 10.074-2.456 2.723-6.23 2.715-9.298-.02-3.313-2.952-7.67-9.456-9.953-14.858-3.396-8.033-4.265-17.419-2.555-27.597.251-1.495.556-3.079.678-3.52.366-1.323.296-1.6-.405-1.606-1.727-.013-3.695-1.753-4.314-3.812-.404-1.342-.404-3.506-.001-5.021.734-2.758 3.199-6.057 5.892-7.886l1.34-.91v-6.74c0-3.708-.048-6.741-.107-6.741-.058 0-.445.15-.858.333-3.326 1.478-4.132 1.754-4.38 1.504-.374-.375.363-.869 3.072-2.061l2.273-1v-3.734l-2.903.423c-1.96.285-2.978.347-3.134.19-.157-.156-.156-.307.001-.465.249-.248 4.527-1.139 5.472-1.139.535 0 .564-.069.564-1.33v-1.33l-3.141-.406c-3.166-.41-3.952-.627-3.952-1.095 0-.254 2.257-.182 5.629.18l1.396.15zm-46.126-12.542c4.01-4.398 8.792-8.335 11.545-9.503.408-.174.809-.246.89-.16.236.245 1.542 4.487 2.048 6.652 1.03 4.397 1.169 5.477 1.282 9.976l.116 4.576 1.44 3.203c1.56 3.475 2.388 5.893 2.954 8.634.528 2.557.526 2.564-.766 3.12-.622.268-1.187.486-1.258.486-.206 0-10.488 4.849-11.055 5.213-.634.408-.672.965-.066.965.688 0 2.802-.83 5.958-2.34 3.975-1.9 7.281-3.38 7.551-3.38.345 0 .289 2.742-.058 2.84-.157.046-1.573.199-3.146.341-3.399.308-4.208.498-4.307 1.01-.091.474.204.478 4.189.053 1.633-.174 3.04-.273 3.125-.22.161.1-.289 2.28-.686 3.323-.222.586-.25.593-1.56.384-1.97-.314-10.732-.14-11.092.22-.707.707.168.854 5.879.988 3.075.073 5.657.197 5.736.276.562.563-3.75 5.41-6.709 7.54-1.832 1.318-6.097 3.554-8.8 4.612-3.91 1.53-10.096 2.983-15.747 3.697-3.758.475-11.166.355-14.757-.238-3.285-.543-6.683-1.566-9.809-2.952-1.295-.574-4.089-2.419-4.382-2.893-.209-.339 1.738-1.13 6.935-2.819 4.797-1.558 5.54-1.853 5.54-2.198 0-.49-1.019-.431-3.464.2-2.237.577-6.918 2.173-9.537 3.253-.743.305-.777.294-1.428-.487-.367-.44-1.152-1.76-1.744-2.932-.854-1.692-1.012-2.173-.765-2.325.576-.356 5.569-.53 11.023-.383 4.557.123 5.43.095 5.534-.179a.534.534 0 0 0-.158-.56c-.756-.627-13.366-.895-16.127-.343-.624.125-.742.066-.948-.476-.724-1.905-.735-8.884-.02-13.736.184-1.248.132-1.58-.569-3.66-.98-2.913-1.424-5.528-1.67-9.839-.145-2.555-.03-9.197.18-10.385.044-.243 2.63.234 4.25.783 2.669.906 7.408 3.225 10.282 5.032 1.377.866 2.716 1.556 2.974 1.534.26-.022 1.134-.3 1.944-.618s1.492-.579 1.515-.579c.022 0 .088 1.056.147 2.346.117 2.594.564 3.943 1.667 5.033.818.808 1.893.845 2.604.09 1.044-1.112 1.472-2.771 1.58-6.13l.102-3.125.666-.097c.234-.035.39-.07.507-.017.254.115.322.646.613 2.507.477 3.048 2.24 5.8 3.716 5.8 1.5 0 2.539-2.308 2.525-5.606-.005-1.132-.083-2.497-.174-3.031l-.165-.973h.816c.705 0 .836.087.957.63.336 1.505 1.326 4.588 1.725 5.37 1.053 2.064 2.707 3.252 3.751 2.693 1.56-.835 2.01-4.179.977-7.263l-.555-1.658h4.206zm3.804 1.631c.568-1.084 3.528-4.099 4.967-5.06 1.832-1.224 2.133-1.206 2.568.155.822 2.57 1.404 7.18 1.145 9.069-.12.88-.226 1.054-.629 1.048-.265-.005-.733-.216-1.038-.47-.536-.446-.557-.578-.628-3.973-.057-2.77-.068-3.994-.444-4.12-.305-.1-.85.52-1.853 1.622a146.643 146.643 0 0 0-2.405 2.693c-.443.528-.677.634-1.143.517-.755-.19-.945-.71-.54-1.481zm66.479-1.206c.001-.702.071-1.346.156-1.43.083-.084.958-.152 1.944-.152h1.792v1.899c0 2.032.185 2.448 1.087 2.448.803 0 1.295-1.333 1.117-3.031l-.137-1.316h3.882v1.795c0 1.482.077 1.864.441 2.194.525.475 1.276.31 1.634-.358.134-.25.218-1.144.188-1.986-.047-1.308 0-1.528.328-1.512.21.01 1.053.036 1.87.057l1.488.038v1.362c0 2.349.853 3.325 1.98 2.266.511-.48.561-.684.495-2.024-.035-.711-.12-1.097.034-1.284.215-.26.895-.136 2.822.028l1.785.151-.15 1.524c-.133 1.35-.097 1.572.312 1.943.609.55 1.447.41 1.807-.305.159-.314.29-1.113.292-1.773l.003-1.201h.786c.972 0 6.66 1.03 8.366 1.514.692.197 1.748.567 2.345.823l1.087.465v22.418c0 18.523-.053 22.398-.304 22.301-.773-.297-3.383-.402-4.686-.189-1.931.315-3.566 1.102-5.02 2.417-.66.597-1.201.973-1.201.835 0-.178-4.895-.25-17.134-.25h-17.134l-.145-.774c-.352-1.874-2.288-3.731-4.677-4.486-1.815-.574-4.863-.613-6.792-.089-.75.204-1.596.422-1.879.485l-.514.113v-43.055l.629-.32c1.356-.69 7.219-1.935 10.982-2.332l1.43-.15v1.493c0 1.578.325 2.213 1.132 2.213.672 0 1.013-.641 1.175-2.207.084-.81.209-1.53.278-1.598.069-.07.946-.182 1.95-.25l1.823-.126-.118 1.48c-.153 1.902.143 2.526 1.148 2.428.928-.09 1.298-.8 1.303-2.492zm-115.549 13.873c-.85-3.569-1.163-8.761-.584-9.698.236-.38.768-.332 2.396.217 1.894.64 6.436 3.645 6.436 4.258 0 .255-.983 1.208-1.24 1.203-.136-.002-1.001-.607-1.922-1.345-.922-.738-2.2-1.627-2.84-1.975l-1.163-.633.143 1.921c.08 1.057.404 2.88.722 4.051.63 2.322.562 2.801-.546 3.803-.668.605-.9.307-1.402-1.802zm109-5.437c.076-.288.141-.704.143-.924.004-.563.565-.498.993.115l.359.514.012-.514c.013-.562.81-.747.985-.23.075.224.179.219.474-.025.323-.267.398-.257.521.064.127.329.177.333.404.036.178-.233.615-.325 1.396-.293 1.119.046 1.138.06 1.175.81.035.695-.01.749-.508.624-.3-.076-.546-.041-.546.076 0 .117-.283.165-.63.106a15.47 15.47 0 0 0-1.429-.152c-.44-.024-.93-.127-1.087-.23-.185-.12-.286-.06-.286.172 0 .424-.262.46-.634.089-.206-.205-.411-.204-.876.008-.572.26-.599.247-.467-.246zm-6.72.316c-.246.055-.36-.162-.412-.782-.055-.662.012-.858.293-.858.2 0 .458.231.571.515.16.394.21.42.222.114.008-.22.106-.4.219-.4.112 0 .277.18.366.4.143.356.184.343.36-.114.288-.749.815-.63 1.02.228.168.702.183.711.277.172.15-.861.518-1.12.518-.365 0 .452.093.607.315.522.174-.067.43-.006.572.135.19.19.257.066.257-.475 0-.629.08-.732.572-.732.45 0 .572.116.572.544 0 .299-.129.641-.286.76-.3.227-1.412.365-2.574.32-1.582-.06-2.54-.055-2.861.016zm3.888-1.07c-.128-.08-.174-.24-.101-.357.196-.318.333-.259.333.143 0 .197-.104.292-.232.213zm8.011.25c0 .404-.492.333-.634-.09-.05-.15.073-.273.272-.273.2 0 .362.163.362.363zm-13.704 6.521a.493.493 0 0 1-.178-.57c.129-.334 2.225-.362 23.427-.309 23.115.058 23.287.062 23.287.516s-.17.458-23.108.512c-13.147.03-23.246-.033-23.428-.149zm-57.22 11.82c.005-2.153 1.375-4.268 3.316-5.116 1.588-.694 3.77-.196 5.397 1.233.863.757 1.926 2.652 1.697 3.023-.245.396-1.169.254-1.625-.251-.618-.685-2.47-1.577-3.273-1.577-1.5 0-2.95 1.045-4.047 2.915-.364.62-.734.975-1.019.975-.388 0-.447-.161-.445-1.202zm57.204-.739c-.12-.074-.158-.285-.087-.47.112-.291 3.143-.335 23.334-.335 20.704 0 23.22.038 23.34.353.075.194.068.421-.016.505-.186.186-46.27.133-46.571-.053zm-88.671 6.039c-.532-1.676 1.257-4.67 3.324-5.565 2.5-1.08 5.604.352 6.894 3.182.917 2.011.248 2.482-1.372.966-1.424-1.331-2.29-1.767-3.52-1.767-1.305 0-2.558.816-3.724 2.425-.96 1.327-1.362 1.516-1.602.759zm17.73 1.944c-.476-1.253.319-2.056 2.5-2.525 1.879-.404 3.94-.386 4.55.042 1.024.717.35 3.048-1.317 4.558-.57.516-.578 1.102-.03 2.31.528 1.16 1.474 1.927 2.378 1.927.519 0 .913-.24 1.582-.965.738-.799.957-.92 1.28-.71 1.175.763-.844 3.048-2.695 3.048-.864 0-2.234-.552-2.882-1.161l-.482-.453-.633.913c-.623.898-2.149 1.845-2.974 1.845-1.62 0-3.313-1.233-2.858-2.084.3-.558.726-.55 1.246.025.458.507 1.888.626 2.645.221.635-.34 1.36-1.89 1.355-2.9-.004-1.053-.142-1.271-1.028-1.63-.922-.371-2.349-1.703-2.637-2.461zm70.813 4.47c-.082-.13-.091-.388-.021-.571.11-.288 3.236-.332 23.185-.329 12.95.002 23.198.092 23.378.206a.492.492 0 0 1 .179.568c-.128.333-2.281.367-23.357.367-15.938 0-23.263-.076-23.364-.24zm-99.404 2.76c.314-.244 1.395-.646 2.402-.892 2.153-.527 4.78-.639 4.633-.197-.054.162-1.021.445-2.25.657-1.185.205-2.566.487-3.07.628-.503.141-1.223.255-1.6.252l-.687-.003zm30.544 13.52c5.574-.552 11.682-1.852 15.672-3.337.818-.303 1.652-.558 1.853-.564.21-.007 1.427 1.382 2.848 3.248 1.366 1.793 3.93 5.05 5.698 7.237 4.929 6.097 6.947 8.688 8.127 10.437 3.885 5.756 6.098 10.566 6.894 14.986.445 2.47.392 7.682-.102 10.026-1.784 8.474-6.77 13.81-13.63 14.585l-1.392.158v-1.157c0-1.232-.44-1.957-1.109-1.829-.485.094-.943 1.032-.947 1.94-.002.402-.095.788-.207.857-.427.264-2.419-.294-2.82-.79-.76-.938-.457-2.393.7-3.367.495-.418.561-.587.355-.915-.37-.594-1.207-.625-1.952-.073-.833.615-.838.472-.089-2.482.807-3.182 3.434-14.79 3.992-17.64 1.086-5.533 1.07-6.863-.076-6.863-.514 0-.591.142-.902 1.659-1.299 6.321-3.635 16.705-5.111 22.707-1.633 6.643-1.791 7.14-2.486 7.837-.62.62-.914.743-1.782.743h-1.04l-.07-1.06c-.051-.78-.199-1.146-.558-1.383-.719-.475-1.228.118-1.228 1.43 0 .977-.025 1.013-.697 1.013-.991 0-1.943-.557-2.227-1.305-.144-.378-.302-3.913-.386-8.647-.205-11.478-.572-15.37-1.592-16.889-.7-1.043-1.583-1.1-2.166-.14-.861 1.416-.982 3.256-.96 14.671l.02 10.913-.515.598c-.34.395-.83.641-1.441.723l-.926.124-.218-1.225c-.182-1.027-.302-1.237-.744-1.3-.838-.119-1.189.351-1.189 1.59 0 1.036-.04 1.116-.567 1.116-.312 0-.979-.165-1.481-.366-1.176-.47-1.615-1.383-3.293-6.841-2.648-8.614-4.358-15.349-5.521-21.735-.32-1.762-.633-3.34-.693-3.505-.065-.176-.371-.271-.741-.229-.593.068-.635.147-.697 1.331-.146 2.73 2.06 12.566 5.104 22.758 1.723 5.767 1.756 5.926 1.406 6.66-.304.637-.516.775-1.396.907-1.447.217-1.73.057-1.73-.981 0-.929-.516-1.889-1.015-1.889-.542 0-.918.723-.938 1.802l-.018 1.058-1.017.075c-2.42.177-5.715-1.037-8.278-3.05-4.539-3.565-7.44-11.144-6.947-18.15.451-6.421 2.35-11.078 8.829-21.659 2.547-4.16 6.936-11.515 7.687-12.884.617-1.124.719-1.205 1.354-1.093 1.763.311 9.77.414 12.355.158zm74.45.23c.966-1.153 1.838-2.813 1.847-3.514.005-.378.977-.4 17.172-.4 16.556 0 17.16.014 16.945.417-.474.885-.544 2.702-.15 3.887.883 2.66 4.984 5.748 9.966 7.505l1.487.525.06 6.988.061 6.989h-59.492v-7.493l.001-7.493 3.718-1.92c4.674-2.415 7.19-4.063 8.386-5.491zm50.299 8.528c1.077-.34 2.077-.86 2.801-1.455.44-.361.82-.637.844-.612.11.11-1.073 5.979-1.611 7.993-.668 2.502-1.91 5.655-2.227 5.655-.118 0-.208-2.455-.208-5.727 0-5.254.034-5.738.401-5.854zm-55.99.037c-.151-.183-.209-.441-.128-.572.101-.164 7.477-.24 23.343-.24s23.242.076 23.343.24c.082.131.024.389-.128.572-.24.287-3.411.333-23.215.333-19.803 0-22.975-.046-23.214-.333z"/></g></g></svg>